# xmcd
#
# Track frame offsets:
#	150
#	11067
#	23451
#	33593
#	41709
#	51634
#	62649
#	70627
#	82264
#	92437
#	101785
#	112821
#	122655
#	132057
#	145395
#	157858
#	169318
#	183206
#	194054
#	202521
#	212507
#	224130
#	231567
#	242733
#
# Disc length: 3359 seconds
#
# Revision: 0
# Processed by: cddbd v1.4PL0 Copyright (c) Steve Scherf et al.
# Submitted via: EasyCDDAExtractor 4.5.2.1
#
DISCID=590d1d18
DTITLE=Various Artist - Aladdin and Imperial R and B Vocal Group Magic  Vol 5
DYEAR=1900
DGENRE=Blues
TTITLE0=Balladiers - What Will I Tell My Heart
TTITLE1=Balladiers - Forget Me Not
TTITLE2=Barons - My Dream, My Love
TTITLE3=Barons - Searching For You
TTITLE4=Barons - Once In A Lifetime
TTITLE5=Blenders - Two Loves
TTITLE6=Bruno Sisters - Don't Leave
TTITLE7=Collegians - I'm Ready
TTITLE8=Daybreakers - I Wonder Why
TTITLE9=DaVilles - Do Wop
TTITLE10=DeVilles - Kiss Me Again And Again
TTITLE11=Dodgers - Let's Make A Whole Lot Of Love
TTITLE12=Dodgers - You Make Me Happy
TTITLE13=Dreamers (Eloise Brooks and the) - Charles, My Darling
TTITLE14=Dreamers (Eloise Brooks and the) - My Plea
TTITLE15=Dukes - Last Ride
TTITLE16=Feathers - I Need A Girl
TTITLE17=Feathers - Standing Right There
TTITLE18=Gaynotes - Hear My Plea
TTITLE19=Gaynotes - Crossroads
TTITLE20=Honeybees - Endless
TTITLE21=Honeybees - Let's See What's Happening
TTITLE22=Honeybees - What's To Become Of Me
TTITLE23=Honeybees - Just To Live Again
EXTD=
EXTT0=
EXTT1=
EXTT2=
EXTT3=
EXTT4=
EXTT5=
EXTT6=
EXTT7=
EXTT8=
EXTT9=
EXTT10=
EXTT11=
EXTT12=
EXTT13=
EXTT14=
EXTT15=
EXTT16=
EXTT17=
EXTT18=
EXTT19=
EXTT20=
EXTT21=
EXTT22=
EXTT23=
PLAYORDER=
